<svg xmlns="http://www.w3.org/2000/svg" style="display:none">
  <!-- Ícono Home -->
  <symbol id="icon-home" viewBox="0 0 24 24">
    <path d="M3 10L12 3l9 7v10a1 1 0 0 1-1 1h-5v-6H9v6H4a1 1 0 0 1-1-1V10z"/>
  </symbol>

  <!-- Ícono Usuario -->
  <symbol id="icon-user" viewBox="0 0 24 24">
    <path d="M12 12a5 5 0 1 0-5-5 5 5 0 0 0 5 5zm0 2c-4 0-8 2-8 5v2h16v-2c0-3-4-5-8-5z"/>
  </symbol>

  <!-- Ícono Configuración -->
  <symbol id="icon-settings" viewBox="0 0 24 24">
    <path d="M19.14 12.94a7.14 7.14 0 0 0 0-1.88l2.03-1.58a.5.5 0 0 0 .12-.64l-1.92-3.32a.5.5 0 0 0-.6-.22l-2.39.96a7.28 7.28 0 0 0-1.62-.94l-.36-2.54A.5.5 0 0 0 14.3 2h-4.6a.5.5 0 0 0-.49.42l-.36 2.54a7.28 7.28 0 0 0-1.62.94l-2.39-.96a.5.5 0 0 0-.6.22L2.72 8.84a.5.5 0 0 0 .12.64l2.03 1.58a7.14 7.14 0 0 0 0 1.88l-2.03 1.58a.5.5 0 0 0-.12.64l1.92 3.32a.5.5 0 0 0 .6.22l2.39-.96a7.28 7.28 0 0 0 1.62.94l.36 2.54a.5.5 0 0 0 .49.42h4.6a.5.5 0 0 0 .49-.42l.36-2.54a7.28 7.28 0 0 0 1.62-.94l2.39.96a.5.5 0 0 0 .6-.22l1.92-3.32a.5.5 0 0 0-.12-.64zM12 15.5A3.5 3.5 0 1 1 15.5 12 3.5 3.5 0 0 1 12 15.5z"/>
  </symbol>

  <!-- Ícono sidebar -->
  <symbol id="icon-menu" viewBox="0 0 20 20">
   <path clip-rule="evenodd" fill-rule="evenodd" d="M2 4.75A.75.75 0 012.75 4h14.5a.75.75 0 010 1.5H2.75A.75.75 0 012 4.75zm0 10.5a.75.75 0 01.75-.75h7.5a.75.75 0 010 1.5h-7.5a.75.75 0 01-.75-.75zM2 10a.75.75 0 01.75-.75h14.5a.75.75 0 010 1.5H2.75A.75.75 0 012 10z"></path>
  </symbol>

    <!-- Ícono círculo partido -->
    <symbol id="icon-circle-split" viewBox="0 0 20 20">
      <path d="M2 10a8 8 0 018-8v8h8a8 8 0 11-16 0z"></path><path d="M12 2.252A8.014 8.014 0 0117.748 8H12V2.252z"></path>
    </symbol>
    <!-- Ícono flecha abajo -->
    <symbol id="icon-arrow-down" viewBox="0 0 20 20">
      <path fill-rule="evenodd" d="M5.293 7.293a1 1 0 011.414 0L10 10.586l3.293-3.293a1 1 0 111.414 1.414l-4 4a1 1 0 01-1.414 0l-4-4a1 1 0 010-1.414z" clip-rule="evenodd"></path>
    </symbol>
    <!-- Ícono documento -->
    <symbol id="icon-document" viewBox="0 0 20 20">
      <path d="M9 2a1 1 0 000 2h2a1 1 0 100-2H9z"></path><path fill-rule="evenodd" d="M4 5a2 2 0 012-2 3 3 0 003 3h2a3 3 0 003-3 2 2 0 012 2v11a2 2 0 01-2 2H6a2 2 0 01-2-2V5zm3 4a1 1 0 000 2h.01a1 1 0 100-2H7zm3 0a1 1 0 000 2h3a1 1 0 100-2h-3zm-3 4a1 1 0 100 2h.01a1 1 0 100-2H7zm3 0a1 1 0 100 2h3a1 1 0 100-2h-3z" clip-rule="evenodd"></path>
    </symbol>
    <!-- Ícono help circle -->
    <symbol id="icon-help-circle" viewBox="0 0 20 20">
      <path fill-rule="evenodd" d="M18 10a8 8 0 11-16 0 8 8 0 0116 0zm-2 0c0 .993-.241 1.929-.668 2.754l-1.524-1.525a3.997 3.997 0 00.078-2.183l1.562-1.562C15.802 8.249 16 9.1 16 10zm-5.165 3.913l1.58 1.58A5.98 5.98 0 0110 16a5.976 5.976 0 01-2.516-.552l1.562-1.562a4.006 4.006 0 001.789.027zm-4.677-2.796a4.002 4.002 0 01-.041-2.08l-.08.08-1.53-1.533A5.98 5.98 0 004 10c0 .954.223 1.856.619 2.657l1.54-1.54zm1.088-6.45A5.974 5.974 0 0110 4c.954 0 1.856.223 2.657.619l-1.54 1.54a4.002 4.002 0 00-2.346.033L7.246 4.668zM12 10a2 2 0 11-4 0 2 2 0 014 0z" clip-rule="evenodd"></path>
    </symbol>

</svg>
